<svg width="356" height="84" viewBox="0 0 356 84" fill="none" xmlns="http://www.w3.org/2000/svg">
<g filter="url(#filter0_d_97_73)">
<rect x="21" y="8" width="316.5" height="56" rx="28" fill="#5A2989"/>
<rect x="21" y="8" width="316.5" height="56" rx="28" fill="url(#paint0_radial_97_73)"/>
<path d="M48 38C48 43 52.0294 47 57 47C61.9706 47 66 43 66 38C66 30.9524 60.4812 26.9707 58.0868 25.5749C57.7855 25.3992 57.6348 25.3114 57.4683 25.3314C57.3348 25.3475 57.1864 25.4387 57.1119 25.5505C57.0188 25.6901 57.0295 25.8695 57.0509 26.2283C57.2471 29.5208 57.7852 36 54.4286 36C52.2719 36 51.924 34.2804 51.8679 31.5625C51.8582 31.0937 51.8534 30.8593 51.7246 30.7199C51.6211 30.6079 51.4374 30.5427 51.2864 30.5644C51.0986 30.5913 50.961 30.7538 50.6858 31.0786C49.5509 32.4185 48 34.8295 48 38Z" fill="white"/>
<path d="M93.0111 36.4545C93.0111 37.8651 92.7469 39.0732 92.2185 40.0788C91.6943 41.0803 90.9784 41.8473 90.0708 42.38C89.1673 42.9126 88.1425 43.179 86.9962 43.179C85.8499 43.179 84.8229 42.9126 83.9152 42.38C83.0118 41.843 82.2959 41.0739 81.7675 40.0724C81.2433 39.0668 80.9813 37.8608 80.9813 36.4545C80.9813 35.044 81.2433 33.8381 81.7675 32.8366C82.2959 31.831 83.0118 31.0618 83.9152 30.5291C84.8229 29.9964 85.8499 29.7301 86.9962 29.7301C88.1425 29.7301 89.1673 29.9964 90.0708 30.5291C90.9784 31.0618 91.6943 31.831 92.2185 32.8366C92.7469 33.8381 93.0111 35.044 93.0111 36.4545ZM90.6269 36.4545C90.6269 35.4616 90.4713 34.6243 90.1602 33.9425C89.8534 33.2564 89.4273 32.7386 88.8818 32.3892C88.3364 32.0355 87.7078 31.8587 86.9962 31.8587C86.2845 31.8587 85.656 32.0355 85.1105 32.3892C84.5651 32.7386 84.1368 33.2564 83.8257 33.9425C83.5189 34.6243 83.3655 35.4616 83.3655 36.4545C83.3655 37.4474 83.5189 38.2869 83.8257 38.973C84.1368 39.6548 84.5651 40.1726 85.1105 40.5263C85.656 40.8757 86.2845 41.0504 86.9962 41.0504C87.7078 41.0504 88.3364 40.8757 88.8818 40.5263C89.4273 40.1726 89.8534 39.6548 90.1602 38.973C90.4713 38.2869 90.6269 37.4474 90.6269 36.4545ZM95.1508 46.6818V33.1818H97.4264V34.8054H97.5606C97.68 34.5668 97.8483 34.3132 98.0656 34.0447C98.2829 33.772 98.577 33.5398 98.9477 33.348C99.3184 33.152 99.7915 33.054 100.367 33.054C101.125 33.054 101.809 33.2479 102.419 33.6357C103.032 34.0192 103.518 34.5881 103.876 35.3423C104.238 36.0923 104.419 37.0128 104.419 38.1037C104.419 39.1818 104.242 40.098 103.889 40.8523C103.535 41.6065 103.054 42.1818 102.444 42.5781C101.835 42.9744 101.144 43.1726 100.373 43.1726C99.8106 43.1726 99.344 43.0788 98.9733 42.8913C98.6025 42.7038 98.3042 42.478 98.0784 42.2138C97.8568 41.9453 97.6842 41.6918 97.5606 41.4531H97.4648V46.6818H95.1508ZM97.42 38.0909C97.42 38.7259 97.5095 39.282 97.6885 39.7592C97.8717 40.2365 98.1338 40.6094 98.4747 40.8778C98.8199 41.142 99.2375 41.2741 99.7275 41.2741C100.239 41.2741 100.667 41.1378 101.012 40.8651C101.358 40.5881 101.617 40.2109 101.792 39.7337C101.971 39.2521 102.061 38.7045 102.061 38.0909C102.061 37.4815 101.973 36.9403 101.799 36.4673C101.624 35.9943 101.364 35.6236 101.019 35.3551C100.674 35.0866 100.243 34.9524 99.7275 34.9524C99.2332 34.9524 98.8135 35.0824 98.4683 35.3423C98.1231 35.6023 97.8611 35.9666 97.6821 36.4354C97.5074 36.9041 97.42 37.456 97.42 38.0909ZM110.747 43.1918C109.763 43.1918 108.913 42.9872 108.197 42.5781C107.485 42.1648 106.938 41.581 106.554 40.8267C106.171 40.0682 105.979 39.1754 105.979 38.1484C105.979 37.1385 106.171 36.2521 106.554 35.4893C106.942 34.7223 107.483 34.1257 108.178 33.6996C108.872 33.2692 109.688 33.054 110.626 33.054C111.231 33.054 111.802 33.152 112.339 33.348C112.88 33.5398 113.358 33.8381 113.771 34.2429C114.188 34.6477 114.517 35.1634 114.755 35.7898C114.994 36.4119 115.113 37.1534 115.113 38.0142V38.7237H107.066V37.1641H112.895C112.891 36.7209 112.795 36.3267 112.608 35.9815C112.42 35.6321 112.158 35.3572 111.821 35.157C111.489 34.9567 111.101 34.8565 110.658 34.8565C110.185 34.8565 109.769 34.9716 109.411 35.2017C109.054 35.4276 108.774 35.7259 108.574 36.0966C108.378 36.4631 108.278 36.8658 108.274 37.3047V38.6662C108.274 39.2372 108.378 39.7273 108.587 40.1364C108.796 40.5412 109.088 40.8523 109.463 41.0696C109.838 41.2827 110.277 41.3892 110.779 41.3892C111.116 41.3892 111.421 41.3423 111.693 41.2486C111.966 41.1506 112.203 41.0078 112.403 40.8203C112.603 40.6328 112.755 40.4006 112.857 40.1236L115.017 40.3665C114.881 40.9375 114.621 41.4361 114.237 41.8622C113.858 42.2841 113.372 42.6122 112.78 42.8466C112.188 43.0767 111.51 43.1918 110.747 43.1918ZM119.385 37.2472V43H117.071V33.1818H119.282V34.8501H119.397C119.623 34.3004 119.983 33.8636 120.478 33.5398C120.976 33.2159 121.592 33.054 122.325 33.054C123.003 33.054 123.593 33.1989 124.096 33.4886C124.603 33.7784 124.995 34.1982 125.272 34.7479C125.553 35.2976 125.691 35.9645 125.687 36.7486V43H123.373V37.1065C123.373 36.4503 123.203 35.9368 122.862 35.5661C122.525 35.1953 122.059 35.0099 121.462 35.0099C121.057 35.0099 120.697 35.0994 120.382 35.2784C120.071 35.4531 119.826 35.7067 119.647 36.0391C119.472 36.3714 119.385 36.7741 119.385 37.2472ZM132.607 43V29.9091H140.993V31.897H134.978V35.451H140.418V37.4389H134.978V43H132.607ZM142.911 43V33.1818H145.154V34.8182H145.256C145.435 34.2514 145.742 33.8146 146.177 33.5078C146.616 33.1967 147.117 33.0412 147.679 33.0412C147.807 33.0412 147.95 33.0476 148.107 33.0604C148.269 33.0689 148.403 33.0838 148.51 33.1051V35.2337C148.412 35.1996 148.256 35.1697 148.043 35.1442C147.835 35.1143 147.632 35.0994 147.436 35.0994C147.014 35.0994 146.635 35.1911 146.298 35.3743C145.966 35.5533 145.704 35.8026 145.512 36.1222C145.32 36.4418 145.225 36.8104 145.225 37.228V43H142.911ZM153.99 43.1918C153.005 43.1918 152.155 42.9872 151.439 42.5781C150.728 42.1648 150.18 41.581 149.796 40.8267C149.413 40.0682 149.221 39.1754 149.221 38.1484C149.221 37.1385 149.413 36.2521 149.796 35.4893C150.184 34.7223 150.725 34.1257 151.42 33.6996C152.115 33.2692 152.931 33.054 153.868 33.054C154.473 33.054 155.044 33.152 155.581 33.348C156.122 33.5398 156.6 33.8381 157.013 34.2429C157.431 34.6477 157.759 35.1634 157.997 35.7898C158.236 36.4119 158.355 37.1534 158.355 38.0142V38.7237H150.308V37.1641H156.137C156.133 36.7209 156.037 36.3267 155.85 35.9815C155.662 35.6321 155.4 35.3572 155.063 35.157C154.731 34.9567 154.343 34.8565 153.9 34.8565C153.427 34.8565 153.012 34.9716 152.654 35.2017C152.296 35.4276 152.017 35.7259 151.816 36.0966C151.62 36.4631 151.52 36.8658 151.516 37.3047V38.6662C151.516 39.2372 151.62 39.7273 151.829 40.1364C152.038 40.5412 152.33 40.8523 152.705 41.0696C153.08 41.2827 153.519 41.3892 154.022 41.3892C154.358 41.3892 154.663 41.3423 154.936 41.2486C155.208 41.1506 155.445 41.0078 155.645 40.8203C155.845 40.6328 155.997 40.4006 156.099 40.1236L158.259 40.3665C158.123 40.9375 157.863 41.4361 157.48 41.8622C157.1 42.2841 156.615 42.6122 156.022 42.8466C155.43 43.0767 154.752 43.1918 153.99 43.1918ZM164.66 43.1918C163.675 43.1918 162.825 42.9872 162.109 42.5781C161.397 42.1648 160.85 41.581 160.466 40.8267C160.083 40.0682 159.891 39.1754 159.891 38.1484C159.891 37.1385 160.083 36.2521 160.466 35.4893C160.854 34.7223 161.395 34.1257 162.09 33.6996C162.785 33.2692 163.601 33.054 164.538 33.054C165.143 33.054 165.714 33.152 166.251 33.348C166.792 33.5398 167.27 33.8381 167.683 34.2429C168.101 34.6477 168.429 35.1634 168.667 35.7898C168.906 36.4119 169.025 37.1534 169.025 38.0142V38.7237H160.978V37.1641H166.807C166.803 36.7209 166.707 36.3267 166.52 35.9815C166.332 35.6321 166.07 35.3572 165.733 35.157C165.401 34.9567 165.013 34.8565 164.57 34.8565C164.097 34.8565 163.682 34.9716 163.324 35.2017C162.966 35.4276 162.687 35.7259 162.486 36.0966C162.29 36.4631 162.19 36.8658 162.186 37.3047V38.6662C162.186 39.2372 162.29 39.7273 162.499 40.1364C162.708 40.5412 163 40.8523 163.375 41.0696C163.75 41.2827 164.189 41.3892 164.691 41.3892C165.028 41.3892 165.333 41.3423 165.606 41.2486C165.878 41.1506 166.115 41.0078 166.315 40.8203C166.515 40.6328 166.667 40.4006 166.769 40.1236L168.929 40.3665C168.793 40.9375 168.533 41.4361 168.15 41.8622C167.77 42.2841 167.285 42.6122 166.692 42.8466C166.1 43.0767 165.422 43.1918 164.66 43.1918ZM179.986 43H175.55V29.9091H180.076C181.375 29.9091 182.492 30.1712 183.425 30.6953C184.362 31.2152 185.083 31.9631 185.585 32.9389C186.088 33.9148 186.34 35.0824 186.34 36.4418C186.34 37.8054 186.086 38.9773 185.579 39.9574C185.076 40.9375 184.35 41.6896 183.399 42.2138C182.453 42.7379 181.316 43 179.986 43ZM177.921 40.9482H179.871C180.783 40.9482 181.544 40.782 182.153 40.4496C182.762 40.1129 183.22 39.6122 183.527 38.9474C183.834 38.2784 183.987 37.4432 183.987 36.4418C183.987 35.4403 183.834 34.6094 183.527 33.9489C183.22 33.2841 182.767 32.7876 182.166 32.4595C181.569 32.1271 180.828 31.9609 179.941 31.9609H177.921V40.9482ZM192.837 43.1918C191.853 43.1918 191.003 42.9872 190.287 42.5781C189.575 42.1648 189.028 41.581 188.644 40.8267C188.261 40.0682 188.069 39.1754 188.069 38.1484C188.069 37.1385 188.261 36.2521 188.644 35.4893C189.032 34.7223 189.573 34.1257 190.268 33.6996C190.962 33.2692 191.778 33.054 192.716 33.054C193.321 33.054 193.892 33.152 194.429 33.348C194.97 33.5398 195.447 33.8381 195.861 34.2429C196.278 34.6477 196.606 35.1634 196.845 35.7898C197.084 36.4119 197.203 37.1534 197.203 38.0142V38.7237H189.155V37.1641H194.985C194.981 36.7209 194.885 36.3267 194.697 35.9815C194.51 35.6321 194.248 35.3572 193.911 35.157C193.579 34.9567 193.191 34.8565 192.748 34.8565C192.275 34.8565 191.859 34.9716 191.501 35.2017C191.143 35.4276 190.864 35.7259 190.664 36.0966C190.468 36.4631 190.368 36.8658 190.364 37.3047V38.6662C190.364 39.2372 190.468 39.7273 190.677 40.1364C190.886 40.5412 191.177 40.8523 191.552 41.0696C191.927 41.2827 192.366 41.3892 192.869 41.3892C193.206 41.3892 193.511 41.3423 193.783 41.2486C194.056 41.1506 194.293 41.0078 194.493 40.8203C194.693 40.6328 194.844 40.4006 194.947 40.1236L197.107 40.3665C196.971 40.9375 196.711 41.4361 196.327 41.8622C195.948 42.2841 195.462 42.6122 194.87 42.8466C194.278 43.0767 193.6 43.1918 192.837 43.1918ZM199.161 43V33.1818H201.372V34.8501H201.487C201.692 34.2876 202.031 33.8487 202.504 33.5334C202.977 33.2138 203.541 33.054 204.198 33.054C204.862 33.054 205.423 33.2159 205.879 33.5398C206.339 33.8594 206.663 34.2962 206.85 34.8501H206.953C207.17 34.3047 207.536 33.87 208.052 33.5462C208.572 33.218 209.188 33.054 209.899 33.054C210.803 33.054 211.54 33.3395 212.111 33.9105C212.682 34.4815 212.967 35.3146 212.967 36.4098V43H210.647V36.7678C210.647 36.1584 210.485 35.7131 210.161 35.4318C209.837 35.1463 209.441 35.0036 208.972 35.0036C208.414 35.0036 207.977 35.1783 207.662 35.5277C207.351 35.8729 207.195 36.3224 207.195 36.8764V43H204.926V36.6719C204.926 36.1648 204.773 35.7599 204.466 35.4574C204.163 35.1548 203.767 35.0036 203.277 35.0036C202.945 35.0036 202.642 35.0888 202.369 35.2592C202.097 35.4254 201.879 35.6619 201.717 35.9688C201.555 36.2713 201.475 36.625 201.475 37.0298V43H199.161ZM218.14 43.1982C217.518 43.1982 216.958 43.0874 216.459 42.8658C215.965 42.6399 215.573 42.3075 215.283 41.8686C214.997 41.4297 214.855 40.8885 214.855 40.245C214.855 39.6911 214.957 39.233 215.161 38.8707C215.366 38.5085 215.645 38.2188 215.999 38.0014C216.353 37.7841 216.751 37.62 217.194 37.5092C217.642 37.3942 218.104 37.3111 218.581 37.2599C219.157 37.2003 219.623 37.147 219.981 37.1001C220.339 37.049 220.599 36.9723 220.761 36.87C220.927 36.7635 221.01 36.5994 221.01 36.3778V36.3395C221.01 35.858 220.867 35.4851 220.582 35.2209C220.296 34.9567 219.885 34.8246 219.348 34.8246C218.782 34.8246 218.332 34.9482 218 35.1953C217.671 35.4425 217.45 35.7344 217.335 36.071L215.174 35.7642C215.345 35.1676 215.626 34.669 216.018 34.2685C216.41 33.8636 216.889 33.5611 217.456 33.3608C218.023 33.1562 218.649 33.054 219.335 33.054C219.809 33.054 220.279 33.1094 220.748 33.2202C221.217 33.331 221.645 33.5142 222.033 33.7699C222.421 34.0213 222.732 34.3643 222.966 34.799C223.205 35.2337 223.324 35.777 223.324 36.429V43H221.1V41.6513H221.023C220.882 41.924 220.684 42.1797 220.429 42.4183C220.177 42.6527 219.86 42.8423 219.476 42.9872C219.097 43.1278 218.652 43.1982 218.14 43.1982ZM218.741 41.4979C219.206 41.4979 219.608 41.4062 219.949 41.223C220.29 41.0355 220.552 40.7884 220.735 40.4815C220.923 40.1747 221.017 39.8402 221.017 39.478V38.321C220.944 38.3807 220.821 38.4361 220.646 38.4872C220.475 38.5384 220.284 38.5831 220.071 38.6214C219.858 38.6598 219.647 38.6939 219.438 38.7237C219.229 38.7536 219.048 38.7791 218.894 38.8004C218.549 38.8473 218.24 38.924 217.968 39.0305C217.695 39.1371 217.48 39.2862 217.322 39.478C217.164 39.6655 217.085 39.9084 217.085 40.2067C217.085 40.6328 217.241 40.9545 217.552 41.1719C217.863 41.3892 218.259 41.4979 218.741 41.4979ZM230.554 33.1818V34.9716H224.909V33.1818H230.554ZM226.303 30.8295H228.617V40.0469C228.617 40.358 228.664 40.5966 228.757 40.7628C228.855 40.9247 228.983 41.0355 229.141 41.0952C229.299 41.1548 229.473 41.1847 229.665 41.1847C229.81 41.1847 229.942 41.174 230.061 41.1527C230.185 41.1314 230.279 41.1122 230.343 41.0952L230.733 42.9041C230.609 42.9467 230.432 42.9936 230.202 43.0447C229.976 43.0959 229.699 43.1257 229.371 43.1342C228.791 43.1513 228.269 43.0639 227.805 42.8722C227.34 42.6761 226.972 42.3736 226.699 41.9645C226.431 41.5554 226.299 41.044 226.303 40.4304V30.8295ZM238.737 43H236.206L240.814 29.9091H243.742L248.357 43H245.826L242.329 32.5938H242.227L238.737 43ZM238.82 37.8672H245.723V39.772H238.82V37.8672ZM253.963 43.1918C252.983 43.1918 252.141 42.9766 251.438 42.5462C250.739 42.1158 250.2 41.5213 249.821 40.7628C249.446 40 249.258 39.1222 249.258 38.1293C249.258 37.1321 249.45 36.2521 249.834 35.4893C250.217 34.7223 250.758 34.1257 251.457 33.6996C252.16 33.2692 252.991 33.054 253.95 33.054C254.747 33.054 255.452 33.201 256.066 33.495C256.684 33.7848 257.176 34.196 257.542 34.7287C257.909 35.2571 258.118 35.875 258.169 36.5824H255.957C255.868 36.1094 255.655 35.7152 255.318 35.3999C254.986 35.0803 254.54 34.9205 253.982 34.9205C253.509 34.9205 253.093 35.0483 252.736 35.304C252.378 35.5554 252.098 35.9176 251.898 36.3906C251.702 36.8636 251.604 37.4304 251.604 38.0909C251.604 38.7599 251.702 39.3352 251.898 39.8168C252.094 40.294 252.369 40.6626 252.723 40.9226C253.081 41.1783 253.5 41.3061 253.982 41.3061C254.323 41.3061 254.628 41.2422 254.896 41.1143C255.169 40.9822 255.397 40.7926 255.58 40.5455C255.763 40.2983 255.889 39.9979 255.957 39.6442H258.169C258.113 40.3388 257.909 40.9545 257.555 41.4915C257.201 42.0241 256.72 42.4418 256.111 42.7443C255.501 43.0426 254.785 43.1918 253.963 43.1918ZM264.351 43.1918C263.371 43.1918 262.53 42.9766 261.827 42.5462C261.128 42.1158 260.589 41.5213 260.209 40.7628C259.834 40 259.647 39.1222 259.647 38.1293C259.647 37.1321 259.839 36.2521 260.222 35.4893C260.606 34.7223 261.147 34.1257 261.846 33.6996C262.549 33.2692 263.38 33.054 264.339 33.054C265.136 33.054 265.841 33.201 266.454 33.495C267.072 33.7848 267.565 34.196 267.931 34.7287C268.297 35.2571 268.506 35.875 268.557 36.5824H266.346C266.256 36.1094 266.043 35.7152 265.707 35.3999C265.374 35.0803 264.929 34.9205 264.371 34.9205C263.898 34.9205 263.482 35.0483 263.124 35.304C262.766 35.5554 262.487 35.9176 262.287 36.3906C262.091 36.8636 261.993 37.4304 261.993 38.0909C261.993 38.7599 262.091 39.3352 262.287 39.8168C262.483 40.294 262.758 40.6626 263.111 40.9226C263.469 41.1783 263.889 41.3061 264.371 41.3061C264.712 41.3061 265.016 41.2422 265.285 41.1143C265.557 40.9822 265.785 40.7926 265.969 40.5455C266.152 40.2983 266.278 39.9979 266.346 39.6442H268.557C268.502 40.3388 268.297 40.9545 267.944 41.4915C267.59 42.0241 267.109 42.4418 266.499 42.7443C265.89 43.0426 265.174 43.1918 264.351 43.1918ZM274.74 43.1918C273.781 43.1918 272.95 42.9808 272.247 42.5589C271.544 42.1371 270.999 41.5469 270.611 40.7884C270.227 40.0298 270.036 39.1435 270.036 38.1293C270.036 37.1151 270.227 36.2266 270.611 35.4638C270.999 34.701 271.544 34.1087 272.247 33.6868C272.95 33.2649 273.781 33.054 274.74 33.054C275.699 33.054 276.53 33.2649 277.233 33.6868C277.936 34.1087 278.479 34.701 278.863 35.4638C279.251 36.2266 279.445 37.1151 279.445 38.1293C279.445 39.1435 279.251 40.0298 278.863 40.7884C278.479 41.5469 277.936 42.1371 277.233 42.5589C276.53 42.9808 275.699 43.1918 274.74 43.1918ZM274.753 41.3381C275.273 41.3381 275.707 41.1953 276.057 40.9098C276.406 40.62 276.666 40.2322 276.837 39.7464C277.011 39.2607 277.099 38.7195 277.099 38.1229C277.099 37.522 277.011 36.9787 276.837 36.4929C276.666 36.0028 276.406 35.6129 276.057 35.3232C275.707 35.0334 275.273 34.8885 274.753 34.8885C274.22 34.8885 273.777 35.0334 273.423 35.3232C273.074 35.6129 272.812 36.0028 272.637 36.4929C272.467 36.9787 272.381 37.522 272.381 38.1229C272.381 38.7195 272.467 39.2607 272.637 39.7464C272.812 40.2322 273.074 40.62 273.423 40.9098C273.777 41.1953 274.22 41.3381 274.753 41.3381ZM287.666 38.8707V33.1818H289.98V43H287.737V41.255H287.634C287.413 41.8047 287.049 42.2543 286.541 42.6037C286.039 42.9531 285.419 43.1278 284.681 43.1278C284.038 43.1278 283.469 42.9851 282.975 42.6996C282.485 42.4098 282.101 41.9901 281.824 41.4403C281.547 40.8864 281.409 40.2173 281.409 39.4332V33.1818H283.723V39.0753C283.723 39.6974 283.893 40.1918 284.234 40.5582C284.575 40.9247 285.022 41.108 285.576 41.108C285.917 41.108 286.247 41.0249 286.567 40.8587C286.887 40.6925 287.149 40.4453 287.353 40.1172C287.562 39.7848 287.666 39.3693 287.666 38.8707ZM294.674 37.2472V43H292.36V33.1818H294.571V34.8501H294.687C294.912 34.3004 295.272 33.8636 295.767 33.5398C296.265 33.2159 296.881 33.054 297.614 33.054C298.292 33.054 298.882 33.1989 299.385 33.4886C299.892 33.7784 300.284 34.1982 300.561 34.7479C300.842 35.2976 300.981 35.9645 300.976 36.7486V43H298.662V37.1065C298.662 36.4503 298.492 35.9368 298.151 35.5661C297.814 35.1953 297.348 35.0099 296.751 35.0099C296.346 35.0099 295.986 35.0994 295.671 35.2784C295.36 35.4531 295.115 35.7067 294.936 36.0391C294.761 36.3714 294.674 36.7741 294.674 37.2472ZM308.231 33.1818V34.9716H302.587V33.1818H308.231ZM303.981 30.8295H306.294V40.0469C306.294 40.358 306.341 40.5966 306.435 40.7628C306.533 40.9247 306.661 41.0355 306.819 41.0952C306.976 41.1548 307.151 41.1847 307.343 41.1847C307.488 41.1847 307.62 41.174 307.739 41.1527C307.863 41.1314 307.956 41.1122 308.02 41.0952L308.41 42.9041C308.287 42.9467 308.11 42.9936 307.88 43.0447C307.654 43.0959 307.377 43.1257 307.049 43.1342C306.469 43.1513 305.947 43.0639 305.483 42.8722C305.018 42.6761 304.65 42.3736 304.377 41.9645C304.108 41.5554 303.976 41.044 303.981 40.4304V30.8295Z" fill="white"/>
</g>
<defs>
<filter id="filter0_d_97_73" x="-3" y="0" width="364.5" height="104" filterUnits="userSpaceOnUse" color-interpolation-filters="sRGB">
<feFlood flood-opacity="0" result="BackgroundImageFix"/>
<feColorMatrix in="SourceAlpha" type="matrix" values="0 0 0 0 0 0 0 0 0 0 0 0 0 0 0 0 0 0 127 0" result="hardAlpha"/>
<feMorphology radius="8" operator="erode" in="SourceAlpha" result="effect1_dropShadow_97_73"/>
<feOffset dy="16"/>
<feGaussianBlur stdDeviation="16"/>
<feComposite in2="hardAlpha" operator="out"/>
<feColorMatrix type="matrix" values="0 0 0 0 0.352941 0 0 0 0 0.160784 0 0 0 0 0.537255 0 0 0 0.48 0"/>
<feBlend mode="normal" in2="BackgroundImageFix" result="effect1_dropShadow_97_73"/>
<feBlend mode="normal" in="SourceGraphic" in2="effect1_dropShadow_97_73" result="shape"/>
</filter>
<radialGradient id="paint0_radial_97_73" cx="0" cy="0" r="1" gradientUnits="userSpaceOnUse" gradientTransform="translate(179.25 36) rotate(10.0338) scale(160.708 55.1435)">
<stop stop-color="white" stop-opacity="0.12"/>
<stop offset="1" stop-opacity="0"/>
</radialGradient>
</defs>
</svg>
