<?xml version="1.0" encoding="UTF-8"?><svg xmlns="http://www.w3.org/2000/svg" xmlns:xlink="http://www.w3.org/1999/xlink" height="381.0" preserveAspectRatio="xMidYMid meet" version="1.0" viewBox="58.4 4.7 423.6 381.0" width="423.6" zoomAndPan="magnify"><defs><g id="a"><path d="M 185.4 113.9 Q 177 94.2 168.5 79 126.75 4.9 82 38.9 38.15 70.1 58.5 200.75 85.856640625 312.492578125 135.6 349.15 185.34296875 385.8533203125 213.45 283.7 215 251.2 212.45 220.9 211.9 213.95 211 207.15 205 159.05 185.4 113.9 M 63.95 95.7 Q 68.85 72.15 76.6 59.2 95.85 26.55 132.65 60.45 155.85 84.1 174.05 135.1 189.1529296875 177.4515625 195.9 224.4 197.65 246.3 196.15 269 192.85390625 344.9287109375 151.6 343.5 144.65 342.05 136.75 337.3 93.55 308.3 70.95 212.95 57.1 163.8 63.95 95.7 Z"/><path d="M 157.4 226.35 Q 172.8 181.2 138.85 151.7 115.35 203.6 157.4 226.35 M 363.15 238.75 L 363.65 254.8 376.4 259.65 378.15 338.8 353.65 359.4 Q 379.05 371.75 391.95 373.15 L 391.55 244.95 Q 377.5 242.75 363.15 238.75 M 343.05 262.7 L 350.45 271.45 353.7 304.85 Q 343.85 335.35 344.9 348.9 L 368.5 331.9 369.7 272.95 364.1 270.8 343.05 262.7 Z" fill="#999"/><path d="M 195.9 224.4 L 174.95 224.4 Q 186.7 299.2 151.6 343.5 192.85390625 344.9287109375 196.15 269 197.65 246.3 195.9 224.4 M 132.65 60.45 Q 95.85 26.55 76.6 59.2 140.55 73 156.3 147.45 L 174.05 135.1 Q 155.85 84.1 132.65 60.45 Z" fill="#CCC"/><path d="M 156.3 147.45 L 138.85 151.7 Q 172.8 181.2 157.4 226.35 L 174.95 224.4 195.9 224.4 Q 189.1529296875 177.4515625 174.05 135.1 L 156.3 147.45 M 391.55 244.95 Q 394.9 245.45 398.25 245.85 403.55 245.5 407.5 242.2 425.45 181.9 341.6 210.4 327.95 219.45 310.05 218.3 325.7 225.95 341.1 231.55 349.9 234.9 358.6 237.5 360.85 238.1 363.15 238.75 377.5 242.75 391.55 244.95 Z" fill="#666"/><path d="M 76.6 59.2 Q 68.85 72.15 63.95 95.7 57.1 163.8 70.95 212.95 93.55 308.3 136.75 337.3 144.65 342.05 151.6 343.5 186.7 299.2 174.95 224.4 L 157.4 226.35 Q 115.35 203.6 138.85 151.7 L 156.3 147.45 Q 140.55 73 76.6 59.2 Z" fill="#FFF"/><path d="M 174.65 80.9 L 250.25 109.9 333.1 106.4 Q 318.75 91.5 293.55 94.45 238.7 99.95 174.65 80.9 M 329.1 212.1 Q 334.8 209.65 339.05 205.75 L 232.95 227.45 211 207.15 Q 211.9 213.95 212.45 220.9 L 227.45 234.95 329.1 212.1 M 457.65 148.25 Q 461.8 122.3 445.75 99.75 435.95 87.9 420.85 86.15 431.15 92.55 438.05 100.05 452.05 115.05 452.25 134.45 450.4 158.7 442.5 172.8 L 441.4 174.65 Q 454.5 171.4 457.65 148.25 Z" fill="#598499"/><path d="M 363.65 254.8 L 364.1 270.8 369.7 272.95 368.5 331.9 344.9 348.9 Q 345.7 359.8 353.65 359.4 L 378.15 338.8 376.4 259.65 363.65 254.8 M 358.6 237.5 Q 349.9 234.9 341.1 231.55 L 343.05 262.7 357.45 260.2 358.6 237.5 M 398.25 245.85 Q 394.9 245.45 391.55 244.95 L 391.95 373.15 Q 411.2 375.25 402.7 353.05 L 398.25 245.85 Z" fill="#C7C7C7"/><path d="M 363.15 238.75 Q 360.85 238.1 358.6 237.5 L 357.45 260.2 343.05 262.7 364.1 270.8 363.65 254.8 363.15 238.75 Z" fill="#A0A0A0"/><path d="M 442.5 172.8 Q 450.4 158.7 452.25 134.45 452.05 115.05 438.05 100.05 455.4 148.65 442.5 172.8 M 356.9 179.25 Q 363.05 159.05 354.3 127.35 334.35 92.5 313.3 88.4 300.95 91.1 293.55 94.45 318.75 91.5 333.1 106.4 348.75 122.6 351.55 160.15 353.9 191.95 339.05 205.75 334.8 209.65 329.1 212.1 L 227.45 234.95 212.45 220.9 Q 215 251.2 213.45 283.7 234.8 258.15 268.1 240.4 L 310.05 218.3 Q 327.95 219.45 341.6 210.4 425.45 181.9 407.5 242.2 420 231.6 419.2 191.25 420.1 159.7 359.1 194.4 352.15 202.1 345.4 207.55 351.75 199.3 356.9 179.25 M 389.65 79.85 Q 381.2 80.35 373.45 80.85 429.15 96.45 425.4 182.85 438.05 162.05 433.5 128.85 428.8 95.55 389.65 79.85 Z" fill="#003B8B"/><path d="M 351.55 160.15 Q 348.75 122.6 333.1 106.4 L 250.25 109.9 174.65 80.9 Q 174.4 80.8 174.1 80.75 171.3 79.9 168.5 79 177 94.2 185.4 113.9 205 159.05 211 207.15 L 232.95 227.45 339.05 205.75 Q 353.9 191.95 351.55 160.15 M 420.85 86.15 Q 415.95 83.1 410.35 80.35 L 389.65 79.85 Q 428.8 95.55 433.5 128.85 438.05 162.05 425.4 182.85 429.15 96.45 373.45 80.85 335.4 83.65 313.3 88.4 334.35 92.5 354.3 127.35 363.05 159.05 356.9 179.25 351.75 199.3 345.4 207.55 352.15 202.1 359.1 194.4 420.1 159.7 419.2 191.25 433.25 187.9 441.4 174.65 L 442.5 172.8 Q 455.4 148.65 438.05 100.05 431.15 92.55 420.85 86.15 Z" fill="#2D7599"/></g></defs><g transform="translate(20.25 -.25)"><use xlink:actuate="onLoad" xlink:href="#a" xlink:show="embed" xlink:type="simple" xmlns:xlink="http://www.w3.org/1999/xlink"/></g></svg>