<?xml version="1.0" encoding="UTF-8" standalone="no"?><svg xmlns="http://www.w3.org/2000/svg" xmlns:xlink="http://www.w3.org/1999/xlink" clip-rule="evenodd" fill="#000000" fill-rule="evenodd" height="1917.3" image-rendering="optimizeQuality" preserveAspectRatio="xMidYMid meet" shape-rendering="geometricPrecision" text-rendering="geometricPrecision" version="1" viewBox="0.0 0.0 3966.1 1917.3" width="3966.1" zoomAndPan="magnify"><g><g><g id="change1_1"><path d="M347.64 0l3244.58 0c191.2,0 347.63,156.43 347.63,347.64l0 979.69c0,119.03 -60.63,224.57 -152.53,287.3l5.05 302.62 -260.93 -242.29 -3183.8 0c-191.21,0 -347.64,-156.43 -347.64,-347.63l0 -979.69c0,-191.21 156.43,-347.64 347.64,-347.64z" fill="#e4e5e7"/></g><g id="change2_1"><path d="M373.85 0l3244.58 0c191.2,0 347.64,156.43 347.64,347.64l0 979.69c0,119.03 -60.63,224.57 -152.53,287.3l5.04 302.62 -260.92 -242.29 -3183.81 0c-191.2,0 -347.64,-156.43 -347.64,-347.63l0 -979.69c0,-191.21 156.44,-347.64 347.64,-347.64z" fill="#d4efff"/></g></g></g></svg>