<?xml version="1.0" encoding="UTF-8" standalone="no"?><svg xmlns="http://www.w3.org/2000/svg" xmlns:xlink="http://www.w3.org/1999/xlink" fill="#000000" height="340" preserveAspectRatio="xMidYMid meet" version="1" viewBox="-2.9 0.0 462.3 340.0" width="462.3" zoomAndPan="magnify"><g id="change1_2"><path d="M452.149,224.994l-13.427,23.384l-32.403,25.627l-53.967,31.555l-43.22,22.14l-37.122,6.607l-33.867-3.113 l-17.384-27.975l62.473-4.878l33.329-12.044l66.208-44.625l48.882-46.938l11.077,3.91L452.149,224.994z" fill="#ea872d"/></g><g id="change2_2"><path d="M344.721,277.522c-60.239,31.218-118.353,38.62-129.8,16.531c-11.447-22.088,28.107-65.302,88.346-96.521 s118.353-38.62,129.8-16.531S404.96,246.303,344.721,277.522z" fill="#ecb92a"/></g><g id="change3_2"><path d="M336.777,257.773c-44.211,21.969-84.741,30.343-90.525,18.703c-5.784-11.64,25.368-38.886,69.579-60.855 s84.741-30.343,90.525-18.703C412.14,208.558,380.989,235.803,336.777,257.773z" fill="#ecb92a"/></g><g><g id="change4_1"><path d="M277.399,286.145c17.791-3.742,39.722-11.949,61.754-23.108c22.032-11.159,41.626-23.984,55.169-36.112 c15.351-13.747,21.075-24.783,17.015-32.801c-4.063-8.018-16.346-9.933-36.511-5.691c-17.792,3.742-39.723,11.948-61.756,23.108 c-22.031,11.159-41.625,23.984-55.168,36.112c-15.351,13.747-21.075,24.784-17.014,32.801c2.845,5.618,9.725,8.239,20.526,7.847 C266.029,288.133,271.361,287.415,277.399,286.145z M248.918,276.387c-2.373-4.684,8.767-16.458,14.989-22.03 c12.976-11.619,31.879-23.974,53.232-34.788c34.135-17.289,59.954-23.792,74.134-24.306c6.873-0.25,11.014,0.909,12.036,2.927 c3.132,6.184-17.538,31.148-68.221,56.818c-21.351,10.815-42.496,18.745-59.54,22.33 C256.856,281.267,249.955,278.437,248.918,276.387z M453.113,208.263l-14.229-28.092c-6.263-12.365-24.414-17.309-51.111-13.922 c-25.165,3.193-55.544,13.317-85.538,28.509c-29.994,15.192-56.131,33.691-73.595,52.09c-18.527,19.519-25.28,37.077-19.018,49.441 l14.223,28.083c0.002,0.004,0.003,0.007,0.005,0.011c5.31,10.482,19.164,15.631,39.528,14.892 c3.655-0.133,7.521-0.455,11.583-0.971c25.166-3.193,55.544-13.318,85.538-28.509c29.995-15.192,56.132-33.691,73.596-52.09 C452.621,238.187,459.375,220.628,453.113,208.263z M217.651,292.223c-4.35-8.588,2.035-22.868,17.516-39.179 c16.772-17.671,42.035-35.519,71.133-50.257c29.1-14.738,58.435-24.543,82.604-27.609c3.892-0.494,7.568-0.801,11.011-0.926 c16.298-0.592,27.348,2.896,30.938,9.986c4.35,8.588-2.035,22.869-17.516,39.18c-16.772,17.67-42.035,35.519-71.133,50.256 c-29.099,14.739-58.435,24.544-82.604,27.61C237.288,304.115,222.001,300.812,217.651,292.223z M231.879,320.316 c-1.45-2.863-1.704-6.359-0.827-10.351c3.18,0.629,6.64,1.035,10.385,1.197l8.88,18.674 C240.874,328.635,234.456,325.404,231.879,320.316z M273.828,329.376c-4.776,0.605-9.228,0.927-13.322,0.979l0.02-0.01 l-9.164-19.271c2.994-0.167,6.115-0.45,9.37-0.863c6.732-0.854,13.846-2.219,21.217-4.03l9.567,19.958 C285.388,327.565,279.463,328.661,273.828,329.376z M300.409,323.871l-9.604-20.037c14.12-4.049,29.019-9.653,44.001-16.58 l8.929,20.612C328.908,314.636,314.232,320.048,300.409,323.871z M356.432,301.766c-1.518,0.769-3.036,1.516-4.554,2.258 l-8.951-20.663c1.115-0.55,2.23-1.093,3.345-1.657c14.089-7.136,27.308-15.007,39.196-23.249l10.986,19.396 C384.445,286.322,370.917,294.43,356.432,301.766z M427.567,251.509c-6.72,7.08-14.821,14.184-23.967,21.109l-10.766-19.438 c10.361-7.693,19.505-15.639,27.031-23.568c0.997-1.051,1.954-2.094,2.882-3.133l10.722,18.375 C431.677,247.028,429.713,249.248,427.567,251.509z M439.311,237.007l-10.452-17.913c3.555-4.69,6.355-9.22,8.379-13.537 c3.728,1.653,6.399,3.917,7.845,6.774C448.082,218.25,445.978,226.876,439.311,237.007z"/></g><g id="change1_1"><path d="M203.307,237.105l-26.964-0.02l-38.348-15.367L83.78,190.589l-40.702-26.486l-24.193-28.92l-14.142-30.93 l15.625-28.994l35.3,51.774l27.024,22.925l71.642,35.248l65.032,19.066l2.116,11.555L203.307,237.105z" fill="#ea872d"/></g><g id="change2_1"><path d="M104.311,170.025c-57.042-36.737-92.363-83.474-78.893-104.39s70.632-8.09,127.674,28.647 s92.363,83.474,78.893,104.39S161.353,206.762,104.311,170.025z" fill="#ecb92a"/></g><g id="change3_1"><path d="M117.494,153.312c-41.047-27.431-68.467-58.429-61.245-69.236c7.222-10.807,46.352,2.67,87.399,30.101 s68.467,58.429,61.245,69.236C197.671,194.22,158.541,180.743,117.494,153.312z" fill="#ecb92a"/></g><g id="change4_2"><path d="M63.35,115.907c12.094,13.574,30.121,28.52,50.758,42.084c20.638,13.565,41.509,24.186,58.766,29.904 c19.561,6.482,31.982,5.96,36.919-1.55c4.936-7.513,0.489-19.121-13.22-34.506c-12.095-13.575-30.121-28.521-50.76-42.086 c-20.638-13.564-41.508-24.185-58.766-29.904c-19.561-6.482-31.983-5.959-36.918,1.551c-3.459,5.263-2.312,12.535,3.4,21.71 C55.971,107.032,59.246,111.3,63.35,115.907z M57.652,86.345c2.883-4.388,18.638-0.579,26.566,2.048 c16.533,5.479,36.653,15.735,56.654,28.882c31.975,21.017,50.457,40.183,57.955,52.229c3.635,5.839,4.689,10.007,3.446,11.898 c-3.808,5.792-35.745,0.274-83.221-30.931c-20.001-13.145-37.396-27.547-48.983-40.551C57.366,95.659,56.389,88.264,57.652,86.345z M218.302,229.62l17.296-26.315c7.613-11.583,2.876-29.789-13.339-51.266c-15.285-20.245-39.176-41.565-67.273-60.033 c-28.096-18.467-57.144-31.943-81.791-37.944c-26.147-6.366-44.739-3.494-52.352,8.088L3.552,88.455 c-0.002,0.004-0.005,0.007-0.007,0.01c-6.454,9.819-4.031,24.4,6.738,41.7c1.933,3.105,4.135,6.299,6.602,9.566 c15.285,20.246,39.177,41.566,67.272,60.033c28.097,18.467,57.144,31.944,81.792,37.945 C192.096,244.075,210.689,241.202,218.302,229.62z M28.364,67.093c5.288-8.045,20.852-9.607,42.701-4.287 c23.671,5.763,51.719,18.804,78.977,36.72c27.258,17.917,50.353,38.491,65.033,57.935c2.364,3.131,4.458,6.167,6.279,9.092 c8.619,13.845,11.088,25.166,6.722,31.807c-5.288,8.045-20.852,9.608-42.702,4.288c-23.671-5.764-51.719-18.804-78.976-36.72 c-27.258-17.916-50.354-38.491-65.033-57.935C27.812,90.044,23.075,75.139,28.364,67.093z M11.066,93.409 c1.763-2.681,4.67-4.64,8.569-5.865c1.036,3.071,2.404,6.275,4.126,9.605L11.976,114.14C8.322,105.35,7.934,98.175,11.066,93.409z M24.068,134.308c-2.9-3.843-5.394-7.545-7.475-11.071l0.018,0.013l12.162-17.534c1.634,2.515,3.432,5.082,5.409,7.7 c4.089,5.416,8.811,10.909,14.047,16.403l-12.558,18.225C31.388,143.437,27.49,138.841,24.068,134.308z M42.063,154.631 l12.607-18.297c10.535,10.237,22.806,20.376,36.266,29.929L77.494,184.26C64.248,174.763,52.254,164.722,42.063,154.631z M89.102,192.242c-1.422-0.934-2.825-1.88-4.224-2.829l13.475-18.041c1.032,0.694,2.057,1.391,3.101,2.077 c13.197,8.674,26.6,16.229,39.662,22.443l-11.364,19.177C116.431,208.866,102.67,201.161,89.102,192.242z M168.078,228.964 c-9.484-2.309-19.677-5.804-30.233-10.295l11.51-19.007c11.827,5.163,23.268,9.145,33.89,11.731 c1.407,0.343,2.789,0.653,4.152,0.942l-10.61,18.44C174.01,230.302,171.107,229.701,168.078,228.964z M186.501,231.94 l10.343-17.976c5.837,0.752,11.159,0.928,15.912,0.537c0.42,4.056-0.216,7.499-1.975,10.175 C207.136,230.222,198.606,232.687,186.501,231.94z"/></g></g><g fill="#ffffff" id="change5_1"><path d="M258.856,42.541c0,1.149-8.597,2.151-21.364,2.685c-10.031,0.42-18.073,8.461-18.492,18.492 c-0.534,12.766-1.536,21.364-2.685,21.364c-1.149,0-2.151-8.597-2.685-21.364c-0.42-10.031-8.461-18.073-18.492-18.492 c-12.766-0.534-21.364-1.536-21.364-2.685s8.597-2.151,21.364-2.685c10.031-0.42,18.073-8.461,18.492-18.492 C214.164,8.597,215.166,0,216.315,0c1.149,0,2.151,8.597,2.685,21.364c0.42,10.031,8.461,18.073,18.492,18.492 C250.259,40.39,258.856,41.392,258.856,42.541z"/><path d="M334.736,95.215c0,0.86-6.439,1.611-15.999,2.011c-7.512,0.314-13.535,6.337-13.849,13.849 c-0.4,9.561-1.15,15.999-2.011,15.999c-0.86,0-1.611-6.439-2.011-15.999c-0.314-7.512-6.337-13.535-13.849-13.849 c-9.561-0.4-15.999-1.15-15.999-2.011s6.439-1.611,15.999-2.011c7.512-0.314,13.535-6.337,13.849-13.849 c0.4-9.561,1.15-15.999,2.011-15.999c0.86,0,1.611,6.439,2.011,15.999c0.314,7.512,6.337,13.535,13.849,13.849 C328.297,93.604,334.736,94.355,334.736,95.215z"/></g></svg>