<?xml version="1.0" encoding="UTF-8" standalone="no"?><svg xmlns="http://www.w3.org/2000/svg" xmlns:xlink="http://www.w3.org/1999/xlink" fill="#000000" height="367.3" preserveAspectRatio="xMidYMid meet" version="1" viewBox="29.3 24.9 559.1 367.3" width="559.1" zoomAndPan="magnify"><g id="change1_4"><path d="M142.42,63.07l414.36,67.81c14.61,2.39,24.86,15.7,23.44,30.43l-11.79,122.6 c-1.16,12.08-9.95,22.06-21.79,24.73l-354.52,80.05c-15.64,3.53-31.06-6.72-33.87-22.5L110.2,95.72 C106.81,76.64,123.29,59.94,142.42,63.07z" fill="#0073c2"/></g><g id="change2_1"><path d="M558.19,114.92c-0.07,2.2-0.31,4.42-0.73,6.66l-39.55,211.04c-3.84,20.47-21.72,35.31-42.56,35.31H128.33 c-5.38,0-10.56-0.99-15.35-2.8c-3.86-1.47-7.46-3.47-10.72-5.93c-8.39-6.32-14.44-15.66-16.47-26.57c-0.13-0.62-0.23-1.25-0.32-1.89 l-2.06-14.47l-23.1-162.33l-2.09-14.68c-0.16-1.14-0.28-2.28-0.35-3.41c-0.45-7.05,0.83-13.84,3.49-19.94 c3.22-7.4,8.48-13.79,15.11-18.39c6.42-4.44,14.14-7.21,22.57-7.61l413.51-19.54l0.31-0.01c8.54-0.4,16.51,1.66,23.31,5.51 c6.96,3.93,12.71,9.74,16.58,16.68C556.46,99.18,558.46,106.86,558.19,114.92z" fill="#40b6ff"/></g><g id="change3_1"><path d="M124.84,354.05c-0.56,0.33-1.23,0.44-1.88,0.35l-3.95-0.56c-0.45-0.07-0.92-0.02-1.36,0.13l-15.39,5.23 c-8.39-6.32-14.44-15.66-16.47-26.57l7.32-10.87c0.31-0.46,0.5-1,0.55-1.56l0.29-3.43c0.08-0.86,0.48-1.66,1.13-2.22 c3.82-3.3,10.28-2.13,14.14,2.9l16.84,21.96C130.02,344.59,129.34,351.36,124.84,354.05z" fill="#ffffff"/></g><g id="change3_6"><path d="M137.13,332.72c-0.27,0.2-0.58,0.35-0.93,0.43c-1.26,0.27-2.5-0.53-2.77-1.79c-0.79-3.68-2.36-7.07-4.67-10.09 c-2.75-3.59-6.4-6.37-10.56-8.06c-1.19-0.48-1.77-1.84-1.28-3.04c0.48-1.19,1.84-1.77,3.04-1.28c4.93,2,9.25,5.3,12.5,9.54 c2.73,3.57,4.6,7.59,5.53,11.95C138.19,331.29,137.82,332.18,137.13,332.72z" fill="#ffffff"/></g><g id="change3_7"><path d="M148.35,330.71c-0.27,0.21-0.59,0.36-0.95,0.43c-1.26,0.26-2.49-0.56-2.75-1.82 c-1.12-5.48-3.42-10.52-6.85-14.99c-3.86-5.04-8.98-9-14.78-11.47c-1.19-0.5-1.74-1.87-1.24-3.05c0.5-1.19,1.87-1.74,3.05-1.24 c6.55,2.78,12.31,7.24,16.66,12.92c3.86,5.04,6.46,10.72,7.72,16.9C149.4,329.3,149.04,330.18,148.35,330.71z" fill="#ffffff"/></g><g><g id="change1_1"><path d="M116.79,352.06l-3.94-0.56c-0.46-0.07-0.93-0.02-1.36,0.13l-27.9,9.49l-13.17-17.18l16.52-24.52 c0.31-0.46,0.5-1,0.55-1.56l0.3-3.44c0.07-0.86,0.48-1.65,1.13-2.22c3.82-3.3,10.28-2.13,14.13,2.9l16.84,21.96 c3.97,5.17,3.28,11.94-1.22,14.63C118.1,352.05,117.43,352.16,116.79,352.06z" fill="#0073c2"/></g><g id="change1_2"><circle cx="76.99" cy="352.53" fill="#0073c2" r="16.05"/></g><g id="change1_3"><path d="M81.19,366.54c2.77,3.6,8.43,10.39,15.21,15.24c1.38,0.98,2.98,0.91,3.76-0.21l5.66-8.1 c1.18-1.69-0.15-4.62-2.41-5.35c-3.66-1.18-8.89-3.75-14.8-9.35c-1.31-1.24-3.06-1.4-4.01-0.37l-3.69,4 C80.01,363.38,80.13,365.16,81.19,366.54z" fill="#0073c2"/></g><g id="change1_9"><path d="M130.96,330.38c-0.27,0.2-0.58,0.35-0.93,0.43c-1.26,0.27-2.5-0.53-2.77-1.79 c-0.79-3.68-2.36-7.07-4.67-10.09c-2.75-3.59-6.4-6.37-10.56-8.06c-1.19-0.48-1.77-1.84-1.28-3.04c0.48-1.19,1.84-1.77,3.04-1.28 c4.93,2,9.25,5.3,12.5,9.54c2.73,3.57,4.6,7.59,5.53,11.95C132.01,328.95,131.65,329.85,130.96,330.38z" fill="#0073c2"/></g><g id="change1_10"><path d="M142.18,328.37c-0.27,0.21-0.59,0.36-0.95,0.43c-1.26,0.26-2.49-0.56-2.75-1.82 c-1.12-5.48-3.42-10.52-6.85-14.99c-3.86-5.04-8.98-9-14.78-11.47c-1.19-0.5-1.74-1.87-1.24-3.05c0.5-1.19,1.87-1.74,3.05-1.24 c6.55,2.78,12.31,7.24,16.66,12.92c3.86,5.04,6.46,10.72,7.72,16.9C143.23,326.96,142.86,327.85,142.18,328.37z" fill="#0073c2"/></g></g><g id="change3_2"><path d="M99.29,119.69l-2.83,4.42c-1.81,2.82-5.37,3.95-8.46,2.68l-26.64-10.88c3.22-7.4,8.48-13.79,15.11-18.39 l20.58,12.5C100.38,112.05,101.39,116.41,99.29,119.69z" fill="#ffffff"/></g><g id="change3_3"><path d="M82.78,143.76v0.49c0,3.38-2.44,6.27-5.77,6.84l-16.7,2.85l-2.09-14.68c-0.16-1.14-0.28-2.28-0.35-3.41 l18.35,0.99C79.9,137.04,82.78,140.08,82.78,143.76z" fill="#ffffff"/></g><g id="change3_4"><path d="M558.19,114.92L541,123.2c-2.69,1.29-5.91,0.72-7.99-1.43l-2.75-2.84c-2.91-3.01-2.51-7.9,0.86-10.4 l21.63-15.98C556.46,99.18,558.46,106.86,558.19,114.92z" fill="#ffffff"/></g><g id="change3_5"><path d="M536.17,75.87l-14.02,17.98c-1.46,1.88-3.79,2.87-6.16,2.63l-7.16-0.71c-5.06-0.51-7.87-6.11-5.25-10.47 l8.97-14.93l0.31-0.01C521.4,69.96,529.37,72.02,536.17,75.87z" fill="#ffffff"/></g><g id="change1_5"><path d="M46.84,72.12l51,30.98c3.33,2.02,4.34,6.39,2.24,9.67l-2.83,4.42c-1.8,2.82-5.36,3.94-8.46,2.68L34.65,97.76 c-3.63-1.48-5.31-5.68-3.7-9.26l5.97-13.29C38.62,71.4,43.28,69.95,46.84,72.12z" fill="#0073c2"/></g><g id="change1_6"><path d="M77,129.91l-36.11-1.94c-4.29-0.23-7.75,3.45-7.26,7.71l0.97,8.44c0.45,3.95,4.13,6.71,8.06,6.04l35.14-6 c3.33-0.57,5.77-3.46,5.77-6.83v-0.49C83.57,133.15,80.68,130.11,77,129.91z" fill="#0073c2"/></g><g id="change1_7"><path d="M531.05,112l2.75,2.84c2.08,2.15,5.3,2.72,7.99,1.42l41.52-20c3.93-1.89,5.15-6.89,2.55-10.39l-7.47-10.03 c-2.28-3.06-6.61-3.7-9.68-1.43l-36.8,27.19C528.54,104.1,528.13,108.99,531.05,112z" fill="#0073c2"/></g><g id="change1_8"><path d="M504.37,78.37l29.51-49.11c2.02-3.37,6.44-4.38,9.73-2.24l10.93,7.13c3.4,2.22,4.18,6.87,1.68,10.07 l-33.29,42.7c-1.46,1.88-3.79,2.87-6.16,2.64l-7.16-0.72C504.56,88.33,501.75,82.73,504.37,78.37z" fill="#0073c2"/></g></svg>