<?xml version="1.0" encoding="UTF-8" standalone="no"?><svg xmlns="http://www.w3.org/2000/svg" xmlns:xlink="http://www.w3.org/1999/xlink" fill="#000000" height="241.3" preserveAspectRatio="xMidYMid meet" version="1" viewBox="0.0 0.0 427.3 241.3" width="427.3" zoomAndPan="magnify"><g id="change1_1"><path d="M427.28,128.42c0,62.36-92.79,112.92-207.25,112.92S12.77,190.79,12.77,128.42S105.56,15.5,220.03,15.5 S427.28,66.06,427.28,128.42z"/></g><g id="change2_1"><path d="M417,115.42c0,62.36-92.79,112.92-207.25,112.92S2.5,177.79,2.5,115.42S95.29,2.5,209.75,2.5 S417,53.06,417,115.42z" fill="#688eff"/></g><g id="change1_2"><path d="M357.5,33.38C317.99,11.85,265.52,0,209.75,0C153.98,0,101.51,11.85,62.01,33.38C22.02,55.17,0,84.3,0,115.42 s22.02,60.26,62.01,82.04c39.51,21.52,91.98,33.38,147.75,33.38c55.77,0,108.24-11.85,147.75-33.38 c39.99-21.79,62.01-50.92,62.01-82.04S397.48,55.17,357.5,33.38z M209.75,225.84C96.85,225.84,5,176.31,5,115.42S96.85,5,209.75,5 C322.65,5,414.5,54.53,414.5,115.42S322.65,225.84,209.75,225.84z"/></g></svg>