<?xml version="1.0" encoding="UTF-8" standalone="no"?><svg xmlns="http://www.w3.org/2000/svg" xmlns:xlink="http://www.w3.org/1999/xlink" data-name="Layer 1" fill="#000000" height="108" preserveAspectRatio="xMidYMid meet" version="1" viewBox="44.9 195.8 410.2 108.4" width="410" zoomAndPan="magnify"><g id="change1_1"><path d="M442.93,243.61a10.8,10.8,0,0,0-1-5.56h.72c12.45,0,12.46-19.35,0-19.35H420.9a11.06,11.06,0,0,0,0-3.54h7.57c12.45,0,12.46-19.35,0-19.35H74.11c-7,0-10.06,6.1-9.2,11.44H57.34c-12.45,0-12.46,19.35,0,19.35H79.1A10.93,10.93,0,0,0,80,233h-.72c-11.91,0-12.44,17.68-1.56,19.23a10.85,10.85,0,0,0,.59,4.6H72.82c-9.11,0-11.55,10.35-7.33,15.91-1.29,1.07-1.46,2.39-.49,3.53H59.56c-11.83,0-12.35,7.36-1.55,8a2.41,2.41,0,0,0,1,2.31h-.71c-12.37,0-12.38,8.06,0,8.06H79.89a2,2,0,0,0,0,1.48H72.37c-12.36,0-12.38,8.05,0,8.05h352c6.94,0,10-2.54,9.13-4.76H441c12.37,0,12.38-8.06,0-8.06H419.36a2.34,2.34,0,0,0-.88-2.67h.72c11.82,0,12.34-7.36,1.55-8a2.24,2.24,0,0,0-.59-1.91h5.44c7.86,0,10.72-3.26,8.58-5.64a10.64,10.64,0,0,0,1.71-10.3h5.48C453.28,262.84,453.8,245.16,442.93,243.61Z" fill="#bee5fd"/></g></svg>