<?xml version="1.0" encoding="UTF-8" standalone="no"?><svg xmlns="http://www.w3.org/2000/svg" xmlns:xlink="http://www.w3.org/1999/xlink" data-name="Layer 1" fill="#000000" height="173" preserveAspectRatio="xMidYMid meet" version="1" viewBox="-0.6 -9.4 232.6 173.0" width="232.6" zoomAndPan="magnify"><g id="change1_1"><path d="M128.43,43.25l-1-2.87C91.25,12.05,79.4,44.12,83,65.74a98.32,98.32,0,0,0,11.6,39c24.52,46.13,85.42,58.89,74.82,4.15l-1.45-5,20.35-25.27C207.35,91.74,232,94.21,224,55.19,205.78,9.56,186.93-1.21,176.18,3.58c-8,3.58-11,16.1-8.84,28Z" fill="#0073c2" fill-rule="evenodd"/></g><g id="change2_1"><path d="M101.86 115.59L89.43 94.4 8.55 151.94 101.86 115.59z" fill="#e6e6e6" fill-rule="evenodd"/></g><g id="change3_1"><path d="M191.36,79.08c-10.06,12.52-20.72,24.79-30.44,37.54a2.75,2.75,0,0,1-3.9.62,2.9,2.9,0,0,1-.61-4c9.77-12.82,20.47-25.14,30.58-37.72a2.74,2.74,0,0,1,3.92-.46,2.91,2.91,0,0,1,.45,4" fill="#540c2c" fill-rule="evenodd"/></g><g id="change3_2"><path d="M167.69,35.43c-17.45,5-34.94,9.16-52.29,14.62-11.13,18.59,19.53,71.69,42,62.32a2.76,2.76,0,0,1,3.75,1.27,2.89,2.89,0,0,1-1.24,3.84c-30.19,12.58-64.29-51.79-48.45-71.68C113.31,43.49,159.06,32,166.11,30a2.78,2.78,0,0,1,3.47,1.93,2.87,2.87,0,0,1-1.89,3.55" fill="#540c2c" fill-rule="evenodd"/></g><g id="change3_3"><path d="M172.61,2.06a2.8,2.8,0,0,1,.69-.47h0a2.26,2.26,0,0,1,.6-.21C204-9.37,228.83,45.57,228.22,69.72c-.36,14.25-10,23.5-23.7,20.55-25.32-5.45-56.61-70.95-31.91-88.21m3.09,4.69c-16.8,10.67,2.65,52.31,11.77,64.07,6.66,8.57,22.05,21.53,32.17,9.47,10.51-12.54-6.91-48.24-15.3-59.26-7-9.21-16.65-18.91-28.64-14.28Z" fill="#540c2c" fill-rule="evenodd"/></g><g id="change3_4"><path d="M125.74,43.83c-13-16.64-39.89-18.1-40.51,8.51-.8,34,14.62,67.36,44.53,83.77,21.72,11.91,42.13,5,37.38-22.66a20.5,20.5,0,0,0-2.34-7.37,2.9,2.9,0,0,1,.55-4,2.75,2.75,0,0,1,3.91.56c6,12.55,6.69,32.51-6.31,41.06-23,15.14-57.19-15.11-69.13-34.86-9.65-16-22.2-59.55-7.93-75.52,12.38-13.86,33.9-6.22,44.46,7.29a2.89,2.89,0,0,1-.73,4,2.76,2.76,0,0,1-3.88-.75" fill="#540c2c" fill-rule="evenodd"/></g><g id="change3_5"><path d="M89.78,99.23c-21.7,15.79-45.95,30-67.94,45.67q39-16.5,78-32.85a2.77,2.77,0,0,1,3.64,1.57,2.88,2.88,0,0,1-1.54,3.72q-43.24,18.16-86.45,36.44c-2.3,1-16.1,9-15.49,2,0-.47.66-1.27,1.74-2.33l0,0,.16-.07C13.6,142,77.11,101.43,86.47,94.62a2.75,2.75,0,0,1,3.9.61,2.9,2.9,0,0,1-.59,4" fill="#540c2c" fill-rule="evenodd"/></g></svg>